<svg xmlns="http://www.w3.org/2000/svg" viewBox="0 0 237.83 122.57"><title>Recurso 1</title><g id="Capa_2" data-name="Capa 2"><g id="Capa_1-2" data-name="Capa 1"><path d="M23.46,13.8c-.2-1.27-1.17-5.12-5.61-5.12-5,0-6.63,4.88-6.63,9.56s1.61,9.56,6.63,9.56c3.61,0,5-2.54,5.66-5.8H34c0,7-5.71,14.48-15.9,14.48C6.88,36.47.49,28.52.49,18.23.49,7.26,7.41,0,18.14,0,27.7,0,33,5.07,33.89,13.8Z"/><path d="M48.47,0C59.05,0,66.12,7.61,66.12,18.23S59.05,36.47,48.47,36.47,30.82,28.86,30.82,18.23,37.89,0,48.47,0Zm0,27.79c2.73,0,6.92-1.8,6.92-9.56S51.2,8.68,48.47,8.68s-6.92,1.8-6.92,9.56S45.74,27.79,48.47,27.79Z"/><path d="M64.76.83H80l5,20.48h.1l5-20.48h15.26V35.64H95.18V13.31h-.1L89,35.64H81L75,13.31h-.1V35.64H64.76Z"/><path d="M106.5.83h17.94c9.46,0,12.77,6.92,12.77,11.9,0,8.44-5.66,12.38-13.65,12.38h-6.34V35.64H106.5Zm10.73,16h4.14c2.78,0,5.7-.19,5.7-3.71,0-3.17-2.44-3.36-5.07-3.36h-4.78Z"/><path d="M140.72.83h10.48l12.68,34.81H152.77l-1.46-5H140.24l-1.56,5H127.9Zm8.43,22.38L146,12.48h-.1l-3.37,10.73Z"/><path d="M161.25.83h11l10.14,18.63h.1V.83H192.6V35.64H182.17l-10.68-19h-.1v19H161.25Zm12.4,0h7.45V8.14h-3.44Z"/><path d="M193.53.83h10.73V35.64H193.53Z"/><path d="M214.16.83h10.48l12.68,34.81H226.2l-1.46-5H213.67l-1.56,5H201.33Zm8.43,22.38-3.12-10.73h-.1L216,23.21Z"/><path d="M28.8,122.57,24.39,118a15.4,15.4,0,0,1-7.75,1.74c-10,0-16.6-7.15-16.6-17.15s6.65-17.15,16.6-17.15,16.6,7.16,16.6,17.15a17.88,17.88,0,0,1-3.81,11.46l3.9,4Zm-9-18.39,2.75,2.8a12.85,12.85,0,0,0,.64-4.36c0-7.29-3.94-9-6.51-9s-6.51,1.7-6.51,9,3.95,9,6.51,9a4.87,4.87,0,0,0,1.33-.18l-2.75-2.84Z"/><path d="M62.23,106.33c0,9.08-4.91,13.44-14.91,13.44s-15-4.36-15-13.44V86.25H42.46v17.84c0,3.35,0,7.52,4.91,7.52s4.77-4.17,4.77-7.52V86.25H62.23Z"/><path d="M62.69,86.25H89.8v8.39h-17v4.08H88.24v7.8H72.78v4.08H90.3V119H62.69Z"/><path d="M90.49,86.25h17.93c8.62,0,10.46,4.86,10.46,8.21s-1.61,5.09-4,6.42a8,8,0,0,1,5.69,8.17c0,6.56-5.69,10-11.47,10H90.49ZM100.58,99h5.32c2.11,0,3.44-.6,3.44-2.71,0-1.65-1.38-2.25-3.44-2.25h-5.32Zm0,12.2h5.92c2.11,0,3.94-.6,3.94-3.12,0-1.93-1.15-3-3.53-3h-6.33Z"/><path d="M119,86.25h19.22c5.73,0,10.69,3.16,10.69,9.36,0,3.39-1.56,7-4.91,8.21,2.75,1.05,4.45,4.08,4.82,8.16.14,1.6.18,5.5,1.1,7H139.84a23.59,23.59,0,0,1-.83-5c-.28-3.12-.55-6.37-4.54-6.37h-5.37V119H119Zm10.09,14.31h5.27c1.88,0,4.45-.32,4.45-3.25,0-2.06-1.15-3.26-5-3.26h-4.72Z"/><path d="M158.83,86.25h9.86L180.61,119H170.16l-1.38-4.68H158.37L156.9,119H146.77Zm7.93,21.05-2.94-10.09h-.09l-3.17,10.09Z"/><path d="M178.09,86.25h16.56c10.92,0,14.77,8.07,14.77,16.33,0,10-5.32,16.42-16.74,16.42H178.09Zm10.09,24.35h3.94c6.28,0,7.2-5.09,7.2-8.16,0-2.06-.64-7.8-7.93-7.8h-3.21Z"/><path d="M215.93,86.25h9.86L237.72,119H227.26l-1.37-4.68H215.47L214,119H203.87Zm7.93,21.05-2.94-10.09h-.09l-3.17,10.09Z"/><path d="M34.72,54.09c-.29-1.92-1.77-7.74-8.48-7.74-7.59,0-10,7.37-10,14.45s2.43,14.45,10,14.45c5.46,0,7.59-3.83,8.55-8.77H50.72c0,10.62-8.62,21.89-24,21.89C9.66,88.37,0,76.36,0,60.8,0,44.21,10.47,33.23,26.69,33.23,41.14,33.3,49.1,40.9,50.5,54.09Z"/><path d="M61.93,34.48H77.78L96.94,87.12H80.14L77.92,79.6H61.19l-2.36,7.52H42.54ZM74.68,68.32,70,52.1h-.15L64.73,68.32Z"/><path d="M93,34.48h16.59L125,62.64h.15V34.48h15.33V87.12H124.66L108.52,58.37h-.15V87.12H93Z"/><path d="M165.58,33.23c16,0,26.69,11.5,26.69,27.57s-10.69,27.57-26.69,27.57-26.69-11.5-26.69-27.57S149.58,33.23,165.58,33.23Zm0,42c4.13,0,10.47-2.73,10.47-14.45s-6.34-14.45-10.47-14.45-10.47,2.73-10.47,14.45S161.45,75.25,165.58,75.25Z"/><path d="M202.81,34.48h15.85l19.17,52.64H221l-2.21-7.52H202.07l-2.36,7.52H183.42Zm12.75,33.84L210.85,52.1h-.15l-5.09,16.22Z"/></g></g></svg>